<?xml version="1.0" standalone="no"?>
<!DOCTYPE svg PUBLIC "-//W3C//DTD SVG 20010904//EN"
 "http://www.w3.org/TR/2001/REC-SVG-20010904/DTD/svg10.dtd">
<svg version="1.0" xmlns="http://www.w3.org/2000/svg"
 width="474.000000pt" height="266.000000pt" viewBox="0 0 474.000000 266.000000"
 preserveAspectRatio="xMidYMid meet">

<g transform="translate(0.000000,266.000000) scale(0.100000,-0.100000)"
fill="#000000" stroke="none">
<path d="M980 1896 c-14 -8 -35 -28 -48 -45 -67 -91 -178 -213 -217 -239 -25
-16 -61 -33 -80 -36 -19 -4 -37 -12 -41 -17 -4 -8 1 -9 16 -4 43 14 10 -13
-38 -31 -26 -9 -63 -32 -82 -50 -20 -19 -70 -46 -119 -65 -50 -19 -78 -35 -71
-39 9 -6 9 -9 -1 -12 -12 -4 -12 -7 -1 -21 12 -14 12 -19 -2 -32 -8 -9 -13
-21 -10 -29 3 -7 0 -25 -5 -39 -8 -20 -7 -27 2 -28 6 0 1 -5 -13 -10 -20 -8
-22 -12 -10 -20 13 -7 13 -10 1 -18 -10 -6 -2 -16 30 -38 36 -24 52 -29 87
-25 61 6 106 -28 172 -132 l54 -83 26 24 c14 14 41 32 60 40 195 83 184 75
222 161 34 74 48 132 53 217 15 247 42 443 66 471 16 20 24 18 43 -11 20 -31
85 -279 101 -390 7 -47 18 -96 41 -187 13 -51 21 -68 34 -68 25 0 106 -45 170
-96 31 -24 59 -44 62 -44 3 0 -18 47 -48 104 -29 58 -92 203 -139 323 -164
420 -229 516 -315 469z m-40 -70 c0 -10 -34 -85 -52 -114 -29 -48 -32 -34 -4
24 13 27 26 59 30 72 6 18 26 32 26 18z"/>
<path d="M1660 1620 c0 -5 8 -10 18 -10 10 0 28 -7 40 -16 20 -14 22 -23 22
-107 0 -129 -18 -360 -30 -392 -6 -15 -23 -32 -40 -38 -17 -6 -30 -15 -30 -19
0 -4 47 -8 105 -8 63 0 105 4 105 10 0 6 -9 10 -20 10 -12 0 -32 11 -45 25
-25 24 -25 27 -25 197 0 288 -5 288 120 11 60 -131 111 -238 115 -238 3 0 57
110 118 244 l112 243 5 -48 c11 -96 11 -370 1 -397 -7 -19 -20 -29 -41 -33
-75 -16 -14 -24 170 -24 117 0 200 4 200 9 0 5 -10 11 -21 13 -39 6 -44 29
-20 107 l22 72 85 -3 86 -3 24 -64 c30 -81 30 -99 -1 -111 -14 -5 -25 -12 -25
-15 0 -3 43 -5 95 -5 98 0 116 8 67 26 -32 12 -40 29 -153 327 -35 92 -67 167
-70 167 -4 0 -25 -46 -47 -102 -22 -57 -64 -163 -92 -235 -32 -83 -59 -138
-73 -148 -27 -19 -77 -19 -102 -1 -18 13 -20 34 -27 251 -4 142 -3 246 2 261
6 16 20 27 40 31 58 11 41 23 -32 23 l-73 -1 -110 -234 c-60 -129 -113 -231
-116 -227 -4 4 -55 109 -115 235 l-108 227 -68 0 c-39 0 -68 -4 -68 -10z
m1004 -265 c19 -49 32 -93 30 -97 -7 -10 -131 -10 -137 0 -5 7 64 195 69 189
2 -1 19 -43 38 -92z"/>
<path d="M2824 1536 c-3 -12 -4 -42 -2 -67 l3 -44 22 42 c24 44 62 63 126 63
l27 0 0 -224 c0 -239 -3 -256 -50 -256 -10 0 -22 -4 -25 -10 -4 -6 35 -10 111
-10 117 0 132 5 71 25 l-32 10 -3 234 -2 234 56 -6 c63 -6 78 -16 104 -66 l19
-36 1 69 c0 53 -3 67 -14 63 -30 -12 -332 -19 -369 -9 -34 10 -37 9 -43 -12z"/>
<path d="M3280 1542 c0 -5 11 -13 25 -16 15 -4 30 -18 35 -32 6 -14 10 -107
10 -207 0 -195 -7 -229 -48 -235 -12 -2 -22 -8 -22 -13 0 -6 68 -8 173 -7
l172 3 13 50 c17 71 10 88 -17 37 -26 -50 -67 -72 -134 -72 -76 0 -78 5 -75
246 l3 209 35 17 35 18 -87 0 c-47 0 -93 3 -102 6 -9 3 -16 2 -16 -4z"/>
<path d="M3806 1321 c-86 -223 -111 -271 -141 -271 -8 0 -15 -4 -15 -10 0 -6
33 -10 80 -10 79 0 105 12 54 24 -25 7 -26 10 -21 55 3 27 13 65 21 85 l15 36
84 0 84 0 28 -81 c23 -67 26 -83 14 -90 -8 -5 -20 -9 -26 -9 -7 0 -13 -4 -13
-10 0 -6 37 -10 90 -10 86 0 117 11 66 24 -28 7 -42 35 -119 241 -87 233 -94
249 -103 252 -5 2 -49 -100 -98 -226z m113 33 c17 -47 31 -90 31 -95 0 -5 -31
-9 -70 -9 -38 0 -70 4 -70 9 0 18 63 181 70 181 4 0 21 -39 39 -86z"/>
<path d="M4206 1526 c29 -13 31 -17 37 -82 3 -38 5 -135 4 -215 -3 -153 -10
-179 -48 -179 -10 0 -21 -5 -25 -11 -5 -8 30 -10 127 -7 109 3 143 8 181 25
116 53 119 192 6 243 l-39 17 34 22 c70 43 74 134 8 178 -31 21 -44 23 -175
23 -127 -1 -138 -2 -110 -14z m223 -18 c46 -28 55 -111 18 -154 -19 -22 -34
-28 -80 -32 l-57 -4 0 99 c0 55 3 103 8 107 10 11 87 -1 111 -16z m9 -228 c65
-40 78 -141 25 -194 -29 -29 -85 -43 -122 -30 -26 9 -26 11 -29 127 l-3 117
48 0 c30 0 60 -7 81 -20z"/>
<path d="M4607 1512 c-35 -38 -9 -102 41 -102 24 0 62 36 62 60 0 51 -69 80
-103 42z m71 -4 c7 -7 12 -24 12 -38 0 -47 -42 -66 -74 -34 -32 31 -14 84 29
84 12 0 26 -5 33 -12z"/>
<path d="M4630 1508 c-6 -18 -4 -68 3 -68 4 0 7 5 7 11 0 8 4 8 13 0 11 -8 14
-5 14 19 0 17 -4 30 -9 30 -5 0 -7 -4 -3 -9 3 -5 1 -12 -4 -15 -5 -4 -12 4
-14 16 -2 13 -5 20 -7 16z"/>
<path d="M50 1296 c0 -2 7 -7 16 -10 8 -3 12 -2 9 4 -6 10 -25 14 -25 6z"/>
</g>
</svg>
