<?xml version="1.0" standalone="no"?>
<!DOCTYPE svg PUBLIC "-//W3C//DTD SVG 20010904//EN"
 "http://www.w3.org/TR/2001/REC-SVG-20010904/DTD/svg10.dtd">
<svg version="1.0" xmlns="http://www.w3.org/2000/svg"
 width="474.000000pt" height="266.000000pt" viewBox="0 0 474.000000 266.000000"
 preserveAspectRatio="xMidYMid meet">

<g transform="translate(0.000000,266.000000) scale(0.100000,-0.100000)"
fill="#000000" stroke="none">
<path d="M2514 2601 c-45 -20 -91 -73 -150 -171 -64 -108 -166 -250 -222 -311
-43 -47 -67 -63 -133 -89 -98 -40 -159 -87 -238 -182 l-58 -71 -304 -124
c-167 -68 -310 -130 -318 -138 -21 -21 -8 -40 65 -92 37 -27 143 -103 237
-170 93 -68 177 -123 187 -123 10 0 34 7 53 15 20 8 49 15 64 15 44 0 101 -61
162 -173 30 -57 141 -310 155 -354 10 -32 45 -37 102 -15 115 44 201 115 382
320 82 92 170 182 195 200 140 100 218 83 400 -85 111 -103 177 -153 201 -153
28 0 29 44 3 96 -68 135 -170 396 -282 719 -224 647 -299 821 -375 870 -51 33
-79 37 -126 16z m111 -95 c56 -73 168 -355 338 -851 50 -146 138 -379 191
-502 19 -46 31 -83 28 -83 -4 1 -38 30 -77 66 -98 91 -168 124 -259 124 -127
0 -192 -45 -399 -276 -68 -77 -151 -164 -183 -194 -59 -54 -163 -115 -184
-108 -6 2 -40 70 -75 153 -78 180 -145 294 -205 348 l-45 40 105 106 c201 202
337 443 561 991 33 80 71 162 85 182 39 56 78 57 119 4z m-404 -483 c-58 -131
-188 -372 -216 -402 -12 -12 -28 -3 -110 59 -53 41 -98 77 -101 82 -3 4 32 45
78 91 71 71 94 87 155 111 91 35 140 70 200 145 26 33 49 58 51 56 2 -2 -23
-66 -57 -142z m-384 -385 c126 -92 118 -84 106 -110 -42 -90 -330 -343 -366
-322 -6 4 -97 68 -200 143 -161 115 -186 136 -170 145 30 16 507 214 520 215
7 1 57 -31 110 -71z"/>
<path d="M1240 502 c33 -16 35 -20 38 -71 4 -61 -14 -318 -23 -342 -3 -9 -20
-23 -38 -32 -32 -16 -31 -16 63 -16 l95 0 -35 17 c-48 23 -55 64 -44 238 l9
138 85 -188 c46 -103 87 -189 91 -191 6 -4 77 141 150 307 19 43 37 78 42 78
11 0 8 -339 -3 -361 -6 -10 -17 -19 -25 -19 -7 0 -17 -5 -20 -10 -4 -7 51 -10
157 -10 150 1 161 2 136 16 -32 17 -33 23 -13 92 l16 52 68 0 68 0 22 -56 c25
-66 26 -84 7 -84 -8 0 -18 -4 -21 -10 -4 -6 22 -10 72 -10 70 1 76 2 58 15
-11 8 -25 18 -30 23 -6 4 -42 92 -80 195 -39 103 -72 187 -75 187 -3 0 -39
-84 -79 -186 -40 -103 -82 -195 -93 -206 -14 -14 -27 -18 -46 -13 -49 12 -51
18 -54 230 l-3 200 35 17 35 18 -61 0 -60 0 -89 -190 c-48 -104 -89 -190 -90
-190 -1 0 -42 85 -91 190 l-89 190 -60 0 -60 -1 35 -17z m780 -199 c14 -37 27
-71 28 -75 2 -5 -24 -8 -58 -8 -34 0 -60 3 -58 8 2 4 14 38 28 75 14 37 27 67
30 67 3 0 16 -30 30 -67z"/>
<path d="M2150 433 c0 -23 -3 -48 -6 -57 -3 -9 -2 -16 4 -16 6 0 15 14 21 30
11 32 43 50 92 50 l29 0 0 -185 0 -185 -32 -14 c-32 -14 -29 -14 62 -15 90 0
93 1 63 14 -41 18 -45 38 -41 230 l3 150 31 3 c46 5 82 -14 98 -50 l14 -33 1
58 c1 54 0 57 -18 47 -28 -15 -294 -13 -309 2 -9 9 -12 3 -12 -29z"/>
<path d="M2955 313 c-91 -234 -96 -244 -124 -256 -26 -11 -26 -11 12 -15 20
-2 52 -1 70 1 29 4 30 5 10 12 -28 9 -29 33 -7 98 l16 47 68 0 68 0 21 -62
c25 -73 25 -78 7 -78 -8 0 -18 -4 -21 -10 -4 -6 22 -10 72 -10 73 1 76 2 52
15 -29 16 -42 43 -119 250 -29 77 -55 144 -60 148 -4 5 -34 -58 -65 -140z m79
-25 l25 -68 -61 0 c-44 0 -59 3 -55 13 2 6 15 40 27 75 13 35 27 59 31 55 4
-4 19 -38 33 -75z"/>
<path d="M2525 443 c40 -9 45 -29 45 -197 0 -89 -4 -166 -8 -171 -4 -6 -18
-16 -32 -22 -20 -9 1 -12 117 -12 78 -1 144 3 147 7 3 5 8 29 11 53 5 37 4 41
-6 24 -31 -53 -51 -65 -104 -65 -28 0 -56 5 -63 12 -8 8 -12 62 -12 179 0 174
2 181 45 192 11 2 -20 5 -70 5 -49 0 -81 -2 -70 -5z"/>
<path d="M3260 438 l25 -14 3 -176 2 -177 -27 -15 c-27 -15 -24 -15 60 -16
163 0 227 35 227 125 0 36 -5 48 -31 69 -17 14 -37 26 -45 26 -22 0 -17 15 10
30 49 26 57 98 14 137 -17 15 -41 18 -142 21 -105 2 -118 1 -96 -10z m192 -28
c23 -28 23 -82 0 -110 -12 -15 -33 -24 -65 -27 l-47 -6 0 80 c0 44 3 83 8 87
14 15 86 -2 104 -24z m-17 -164 c41 -17 55 -42 55 -96 0 -55 -34 -90 -88 -90
-55 0 -62 12 -62 112 l0 88 30 0 c17 0 46 -6 65 -14z"/>
<path d="M3582 428 c-18 -18 -15 -65 6 -73 14 -5 15 -4 5 6 -19 19 -16 56 5
68 9 6 12 11 7 11 -6 0 -16 -5 -23 -12z"/>
<path d="M3633 429 c20 -12 23 -49 5 -69 -11 -12 -10 -12 5 -1 29 22 16 82
-17 81 -6 0 -3 -5 7 -11z"/>
<path d="M3601 399 c-1 -17 4 -26 14 -26 10 0 15 10 14 26 0 23 -1 24 -8 6
l-8 -20 -5 20 c-5 16 -6 15 -7 -6z"/>
</g>
</svg>
